<svg xmlns="http://www.w3.org/2000/svg" version="1.1" xmlns:xlink="http://www.w3.org/1999/xlink" xmlns:svgjs="http://svgjs.dev/svgjs" width="100%" height="100%" viewBox="0 0 1000 600"><rect width="1000" height="600" x="0" y="0" fill="#ffffff"/><g><circle r="166.66666666666666" cx="344.52651468912757" cy="366.74868453186184" fill="#fbeaeb" transform="matrix(0.7028008543194657,0,0,0.7028008543194656,0,42.24871740583603)"/><path d="M300.0683041099657 441.02895824474655L272.61260991399206 441.7064783130373Q271.9350898457013 441.02895824474655 271.9350898457013 438.3188779715834L271.9350898457013 438.3188779715834Q271.9350898457013 435.1248547924984 272.61260991399206 435.1248547924984L272.61260991399206 435.1248547924984Q274.64517011886437 435.1248547924984 278.06503332071304 434.3505461430232Q281.45263366216693 433.54397463315325 284.5176053996728 432.41477451933525Q287.58257713717865 431.2855744055173 288.26009720546944 429.898271408541L288.26009720546944 429.898271408541Q289.8732402252094 427.41403115814154 289.8732402252094 408.6047835479739L289.8732402252094 408.6047835479739L289.8732402252094 322.85010061859913Q289.8732402252094 316.2684770980602 289.51834876086656 311.2677337368664Q289.1634572965238 306.2669903756726 288.26009720546944 303.3310700797459L288.26009720546944 303.3310700797459Q287.8084171599422 301.9760299431644 284.74344542243637 300.84682982934646Q281.6784736849305 299.7176297155285 278.16182190189744 299.00784678684295Q274.64517011886437 298.33032671855216 272.61260991399206 298.33032671855216L272.61260991399206 298.33032671855216Q271.70924982293775 298.33032671855216 271.70924982293775 295.62024644538906L271.70924982293775 295.62024644538906Q271.70924982293775 292.68432614946244 272.61260991399206 291.74870319801323L272.61260991399206 291.74870319801323Q278.51671336624025 291.9745432207768 285.1951254679635 292.10359466235604Q291.9058004300817 292.2003832435404 299.61662406443855 292.2003832435404L299.61662406443855 292.2003832435404L321.6198948536912 291.9745432207768Q328.20151837423015 291.9745432207768 332.49247880673835 291.87775463959247Q336.8157020996414 291.74870319801323 339.0741023272773 291.74870319801323L339.0741023272773 291.74870319801323Q363.8197162500878 291.74870319801323 381.2739237236739 301.8469785015852Q398.76039405765476 311.94525380515717 408.05209785135673 328.49610118768885Q417.34380164505876 345.0792114306154 417.34380164505876 364.79181913183737L417.34380164505876 364.79181913183737Q417.34380164505876 386.5692498983264 407.92304640977756 404.2815602550709Q398.53455403489113 421.96160775142056 380.9512951197259 432.1889344965717Q363.36803620456067 442.38399838132807 338.8482623045137 441.7064783130373L338.8482623045137 441.7064783130373L322.74909496750917 441.2547982675101Q315.94163142420666 441.02895824474655 310.2633679947221 440.8999068031673Q304.6173674256323 440.80311822198297 300.0683041099657 441.02895824474655L300.0683041099657 441.02895824474655ZM342.49396552912594 431.2855744055173L342.49396552912594 431.2855744055173Q394.6630107875153 431.2855744055173 394.6630107875153 363.88845904078295L394.6630107875153 363.88845904078295Q394.6630107875153 346.66009158996053 388.5330673125036 332.5934844578283Q382.4031238374919 318.5268773256961 370.49812835181115 310.1385336230485Q358.5931328661305 301.75018992040077 340.9130853697808 301.75018992040077L340.9130853697808 301.75018992040077L339.75162239556806 301.75018992040077Q315.2641113559159 301.75018992040077 312.5540310827528 305.36363028461824L312.5540310827528 305.36363028461824Q309.5858479264313 309.23517353199406 309.5858479264313 319.65607743951404L309.5858479264313 319.65607743951404L309.5858479264313 409.5081436390283Q309.5858479264313 418.79984743273025 313.00571112828 426.7365110898507L313.00571112828 426.7365110898507Q313.45739117380714 427.8657112036687 316.84499151526103 428.67228271353866Q320.2648547171097 429.4465913630138 325.1365466367243 430.02732285012024Q330.0082385563389 430.6080543372266 334.7831418947691 430.93068294117455Q339.5257823728045 431.2855744055173 342.49396552912594 431.2855744055173Z " fill="#2f3c7e" transform="matrix(0.7028008543194657,0,0,0.7028008543194656,0,42.24871740583603)"/><path d="M622.7237024444044 440.1768401212188L595.4247302099495 440.85049278505375Q594.7510775461146 440.1768401212188 594.7510775461146 437.4822294658789L594.7510775461146 437.4822294658789Q594.7510775461146 434.3064383363713 595.4247302099495 434.3064383363713L595.4247302099495 434.3064383363713Q597.4777668997324 434.3064383363713 600.8460302189071 433.5365495777028Q604.2463722363598 432.7345821207564 607.2617698744782 431.61182768103146Q610.3092462108743 430.48907324130647 611.0149775729872 429.10968921535874L611.0149775729872 429.10968921535874Q612.5868337886021 426.6396294479639 612.5868337886021 407.93774835197434L612.5868337886021 407.93774835197434L612.5868337886021 322.6725683294353Q612.5868337886021 316.1285138807529 612.2339681075457 311.15631564768535Q611.9131811247671 306.18411741461773 611.0149775729872 303.264955871333L611.0149775729872 303.264955871333Q610.5337970988194 301.91765054366306 607.518399460701 300.7948961039381Q604.4709231243048 299.6721416642132 600.9743450120186 298.96641030210037Q597.4777668997324 298.2927576382654 595.4247302099495 298.2927576382654L595.4247302099495 298.2927576382654Q594.5265266581696 298.2927576382654 594.5265266581696 295.5981469829256L594.5265266581696 295.5981469829256Q594.5265266581696 292.67898543964077 595.4247302099495 291.74870318958295L595.4247302099495 291.74870318958295Q601.2951319947971 291.97325407752794 607.967501236591 292.10156887063937Q614.6077917801069 292.1978049654729 622.2746006685143 292.1978049654729L622.2746006685143 292.1978049654729L644.1522728940115 291.97325407752794Q650.6963273426941 291.97325407752794 654.9948729119267 291.8770179826944Q659.2613397828814 291.74870318958295 661.538927360609 291.74870318958295L661.538927360609 291.74870318958295Q686.1112102414461 291.74870318958295 703.4657860097658 301.78933575055163Q720.8524404763633 311.8299683115203 730.0911055803855 328.28634052805995Q739.3297706844079 344.77479144287753 739.3297706844079 364.37487609064704L739.3297706844079 364.37487609064704Q739.3297706844079 386.0279974281993 729.9627907872742 403.63920278274173Q720.6278895884183 421.21832943900637 703.1449990269872 431.38727679308647Q685.6621084655562 441.5241454488887 661.2822977743863 440.85049278505375L661.2822977743863 440.85049278505375L645.2750273337365 440.4013910091638Q638.5064219971091 440.1768401212188 632.8926497984844 440.04852532810736Q627.246798901582 439.9522892332738 622.7237024444044 440.1768401212188L622.7237024444044 440.1768401212188ZM664.9071906797839 430.48907324130647L664.9071906797839 430.48907324130647Q716.7784457950758 430.48907324130647 716.7784457950758 363.4766725388671L716.7784457950758 363.4766725388671Q716.7784457950758 346.34664765849243 710.6834931222833 332.36033520934757Q704.5885404494908 318.37402276020276 692.7515007849621 310.03356120796036Q680.9144611204335 301.693099655718 663.3353344641689 301.693099655718L663.3353344641689 301.693099655718L662.212580024444 301.693099655718Q637.8327693332741 301.693099655718 635.1381586779343 305.28591386283784L635.1381586779343 305.28591386283784Q632.1869184363716 309.1353576561804 632.1869184363716 319.4967771999277L632.1869184363716 319.4967771999277L632.1869184363716 408.8359519037543Q632.1869184363716 418.07461700777657 635.5872604538242 425.96597678412894L635.5872604538242 425.96597678412894Q636.0363622297142 427.08873122385387 639.404625548889 427.89069868080026Q642.8049675663417 428.66058743946877 647.6488510062977 429.2380040084702Q652.492734446254 429.81542057747157 657.2403817913764 430.1362075602501Q661.9880291364991 430.48907324130647 664.9071906797839 430.48907324130647ZM782.4114624715672 441.7486963368337L782.4114624715672 441.7486963368337Q772.0500429278201 441.7486963368337 765.2814375911927 436.23116023304266Q758.5128322545653 430.7136241292515 758.5128322545653 419.64647322339147L758.5128322545653 419.64647322339147Q758.5128322545653 406.10926255013663 776.0919589108299 397.0951483340593L776.0919589108299 397.0951483340593Q783.7587677992373 393.2457045407167 791.329340592811 391.00019566126684Q798.8999133863848 388.75468678181693 806.5667222747924 385.8034465402543L806.5667222747924 385.8034465402543Q808.5876802662971 385.12979387641934 808.5876802662971 382.4351832210795L808.5876802662971 382.4351832210795L808.5876802662971 365.52970922864984Q808.5876802662971 358.3120021161324 804.0645838091197 354.36632222795623Q799.5735660502197 350.42064233978004 793.2540624894824 350.42064233978004L793.2540624894824 350.42064233978004Q786.4854571528548 350.42064233978004 781.9623606956774 355.0399748917912Q777.4713429367777 359.65930744380233 777.4713429367777 367.10156544426474L777.4713429367777 367.10156544426474Q777.4713429367777 374.9929252206171 768.2005991344776 374.9929252206171L768.2005991344776 374.9929252206171Q761.656544685795 374.9929252206171 759.4110358063452 370.6943796513845L759.4110358063452 370.6943796513845Q759.4110358063452 365.9788110045398 763.3567156945213 360.9103766766387Q767.3023955826976 355.8098636504597 773.6218991434349 351.543396779505Q779.9414027041724 347.2448512102724 787.4798967994685 344.55024055493254Q795.0504695930423 341.82355120131484 802.4927275935046 341.82355120131484L802.4927275935046 341.82355120131484Q814.9071838270346 341.82355120131484 820.3284838359922 347.8222677792738Q825.7177051466718 353.78890565895483 825.7177051466718 367.10156544426474L825.7177051466718 367.10156544426474L825.7177051466718 419.1973714475015Q825.7177051466718 423.94501879262407 828.2198436123446 427.08873122385387Q830.6899033797393 430.26452235336154 834.988448948972 430.26452235336154L834.988448948972 430.26452235336154Q837.9076104922568 430.26452235336154 842.8798087253243 427.08873122385387L842.8798087253243 427.08873122385387Q843.7780122771043 427.08873122385387 843.7780122771043 428.88513832741376L843.7780122771043 428.88513832741376Q843.7780122771043 431.83637856897644 842.6552578373793 433.63278567253633L842.6552578373793 433.63278567253633Q833.3845140350792 441.5241454488887 826.8404595863966 441.5241454488887L826.8404595863966 441.5241454488887Q821.675789163662 441.5241454488887 816.9281418185395 437.257678577934Q812.1804944734168 432.9591330087014 810.384087369857 428.2114856635788L810.384087369857 428.2114856635788Q809.2613329301322 429.10968921535874 807.5611619214059 430.5853093361401Q805.8930696109572 432.06092945692143 804.7382364729546 432.9591330087014L804.7382364729546 432.9591330087014Q800.0226678261098 436.55194721582114 794.4730530240407 439.1503217763274Q788.9555169202498 441.7486963368337 782.4114624715672 441.7486963368337ZM790.9764749117547 428.88513832741376L790.9764749117547 428.88513832741376Q797.295978472492 428.88513832741376 802.9418293693947 425.292324120294Q808.5876802662971 421.66743121489634 808.5876802662971 417.6255152318866L808.5876802662971 417.6255152318866L808.5876802662971 394.4005376787195Q802.7172784814496 396.6460465581693 797.4242932656035 398.4424536617292Q792.1313080497574 400.2388607652891 788.9555169202498 401.3936939032919L788.9555169202498 401.3936939032919Q784.91360093724 402.96555011890683 781.1924719370089 407.0074661019165Q777.4713429367777 411.08146078320414 777.4713429367777 416.2782099042167L777.4713429367777 416.2782099042167Q777.4713429367777 423.04681524084407 781.6415737128988 425.96597678412894Q785.8118044890199 428.88513832741376 790.9764749117547 428.88513832741376ZM877.1398584860736 439.7277383453288L852.5675756052366 440.85049278505375Q851.6693720534566 439.9522892332738 851.6693720534566 437.033127689989L851.6693720534566 437.033127689989Q851.6693720534566 434.3064383363713 852.5675756052366 434.3064383363713L852.5675756052366 434.3064383363713Q854.3639827087965 434.3064383363713 857.5397738383041 433.63278567253633Q860.6834862695338 432.9591330087014 863.3780969248738 431.83637856897644Q866.1047862784914 430.7136241292515 866.3293371664364 429.81542057747157L866.3293371664364 429.81542057747157Q867.2275407182163 426.6396294479639 867.5804063992729 422.5977134649541Q867.9011933820512 418.52371878366654 867.9011933820512 414.000622326489L867.9011933820512 414.000622326489L867.9011933820512 371.36803231521947Q867.9011933820512 362.80301987503213 864.7574809508216 359.21020566791236L864.7574809508216 359.21020566791236Q862.4798933730939 356.48351631429466 859.4324170366975 355.5853127625147Q856.4170193985791 354.6871092107348 854.0431957260179 354.5908731159012Q851.6693720534566 354.4625583227898 851.6693720534566 354.0134565468998L851.6693720534566 354.0134565468998Q851.6693720534566 348.5921565379423 853.0166773811264 348.3676056499973L853.0166773811264 348.3676056499973Q864.9820318387664 346.5711985464374 872.4242898392289 345.0955784256561Q879.8665478396912 343.6520370031526 881.6629549432513 343.2029352272626L881.6629549432513 343.2029352272626L885.2878478486488 342.2726529772048Q886.1860514004287 342.0481020892598 886.4106022883738 344.10113877904257Q886.6351531763188 346.12209677054744 886.4106022883738 347.0203003223274L886.4106022883738 347.0203003223274Q885.9615005124839 350.19609145183506 885.7369496245389 352.4416003312849Q885.5123987365938 354.6871092107348 885.5123987365938 356.0344145384047L885.5123987365938 356.0344145384047Q885.5123987365938 356.93261809018463 885.9615005124839 356.93261809018463L885.9615005124839 356.93261809018463Q886.1860514004287 356.93261809018463 886.6351531763188 356.48351631429466L886.6351531763188 356.48351631429466Q891.7998235990534 351.094295003615 900.7177017202972 346.218332865381Q909.6355798415408 341.37444942542487 917.7514905058382 341.37444942542487L917.7514905058382 341.37444942542487Q933.534210058543 341.37444942542487 939.8537136192805 352.6661512192299Q946.173217180018 363.92577431475706 946.173217180018 389.2037885577069L946.173217180018 389.2037885577069L946.173217180018 409.7341554555342Q946.173217180018 416.2782099042167 946.6223189559079 421.21832943900637Q947.0714207317977 426.1905276720739 947.9696242835777 429.81542057747157L947.9696242835777 429.81542057747157Q948.4187260594678 430.7136241292515 951.1454154130855 431.83637856897644Q953.8400260684253 432.9591330087014 956.983738499655 433.63278567253633Q960.1595296291629 434.3064383363713 961.5068349568327 434.3064383363713L961.5068349568327 434.3064383363713Q962.1804876206676 434.3064383363713 962.4050385086126 437.033127689989Q962.6295893965577 439.7277383453288 962.1804876206676 440.85049278505375L962.1804876206676 440.85049278505375L938.0573065157206 439.7277383453288L914.3832271866635 440.85049278505375Q913.4529449366056 439.9522892332738 913.4529449366056 437.033127689989L913.4529449366056 437.033127689989Q913.4529449366056 434.3064383363713 914.3832271866635 434.3064383363713L914.3832271866635 434.3064383363713Q916.1796342902234 434.3064383363713 919.0987958335082 433.63278567253633Q922.0500360750708 432.9591330087014 924.5200958424656 431.83637856897644Q926.9901556098604 430.7136241292515 927.2147064978057 429.81542057747157L927.2147064978057 429.81542057747157Q928.1129100495854 426.6396294479639 928.4657757306419 422.5977134649541Q928.8186414116982 418.52371878366654 928.8186414116982 414.000622326489L928.8186414116982 414.000622326489L928.8186414116982 391.4492974371568Q928.8186414116982 370.4698287634395 923.3973414027408 362.80301987503213Q917.9760413937832 355.13621098662475 905.7861360481983 355.13621098662475L905.7861360481983 355.13621098662475Q901.0705674013535 355.13621098662475 896.322920056231 357.734585547131Q891.5752727111084 360.3329601076373 888.4315602798787 363.7012234268121Q885.2878478486488 367.10156544426474 885.2878478486488 370.02072698754955L885.2878478486488 370.02072698754955L885.2878478486488 409.7341554555342Q885.2878478486488 416.2782099042167 885.7369496245389 421.21832943900637Q886.1860514004287 426.1905276720739 887.0842549522087 429.81542057747157L887.0842549522087 429.81542057747157Q887.5333567280987 430.7136241292515 890.2279673834386 431.83637856897644Q892.9546567370561 432.9591330087014 896.098369168286 433.63278567253633Q899.2420815995157 434.3064383363713 900.6214656254637 434.3064383363713L900.6214656254637 434.3064383363713Q901.2951182892986 434.3064383363713 901.5196691772436 437.033127689989Q901.7442200651884 439.7277383453288 901.2951182892986 440.85049278505375L901.2951182892986 440.85049278505375L877.1398584860736 439.7277383453288ZM999.6163285109245 439.7277383453288L975.0440456300877 440.85049278505375Q974.1458420783075 439.9522892332738 974.1458420783075 437.033127689989L974.1458420783075 437.033127689989Q974.1458420783075 434.3064383363713 975.0440456300877 434.3064383363713L975.0440456300877 434.3064383363713Q976.8404527336473 434.3064383363713 980.016243863155 433.63278567253633Q983.1599562943849 432.9591330087014 985.8545669497247 431.83637856897644Q988.5812563033425 430.7136241292515 988.8058071912875 429.81542057747157L988.8058071912875 429.81542057747157Q989.7040107430674 426.6396294479639 990.0568764241237 422.5977134649541Q990.3776634069021 418.52371878366654 990.3776634069021 414.000622326489L990.3776634069021 414.000622326489L990.3776634069021 371.36803231521947Q990.3776634069021 362.80301987503213 987.2339509756724 359.21020566791236L987.2339509756724 359.21020566791236Q984.9563633979448 356.48351631429466 981.9088870615486 355.5853127625147Q978.8614107251523 354.6871092107348 976.5196657508687 354.5908731159012Q974.1458420783075 354.4625583227898 974.1458420783075 354.0134565468998L974.1458420783075 354.0134565468998Q974.1458420783075 348.5921565379423 975.4931474059775 348.3676056499973L975.4931474059775 348.3676056499973Q987.4585018636175 346.5711985464374 994.90075986408 345.0955784256561Q1002.3430178645423 343.6520370031526 1004.1394249681022 343.2029352272626L1004.1394249681022 343.2029352272626L1007.7322391752219 342.2726529772048Q1008.6625214252798 342.0481020892598 1008.8870723132246 344.10113877904257Q1009.1116232011697 346.12209677054744 1008.8870723132246 347.0203003223274L1008.8870723132246 347.0203003223274Q1008.4379705373348 350.19609145183506 1008.2134196493897 352.4416003312849Q1007.9888687614447 354.6871092107348 1007.9888687614447 356.0344145384047L1007.9888687614447 356.0344145384047Q1007.9888687614447 356.93261809018463 1008.4379705373348 356.93261809018463L1008.4379705373348 356.93261809018463Q1008.6625214252798 356.93261809018463 1009.1116232011697 356.48351631429466L1009.1116232011697 356.48351631429466Q1014.2762936239045 351.094295003615 1023.1941717451481 346.218332865381Q1032.1120498663918 341.37444942542487 1040.2279605306894 341.37444942542487L1040.2279605306894 341.37444942542487Q1056.0106800833942 341.37444942542487 1062.3301836441315 352.6661512192299Q1068.6496872048688 363.92577431475706 1068.6496872048688 389.2037885577069L1068.6496872048688 389.2037885577069L1068.6496872048688 409.7341554555342Q1068.6496872048688 416.2782099042167 1069.0987889807589 421.21832943900637Q1069.547890756649 426.1905276720739 1070.4460943084287 429.81542057747157L1070.4460943084287 429.81542057747157Q1070.8951960843187 430.7136241292515 1073.6218854379363 431.83637856897644Q1076.3164960932763 432.9591330087014 1079.460208524506 433.63278567253633Q1082.6359996540136 434.3064383363713 1083.9833049816834 434.3064383363713L1083.9833049816834 434.3064383363713Q1084.6569576455186 434.3064383363713 1084.8815085334636 437.033127689989Q1085.1060594214086 439.7277383453288 1084.6569576455186 440.85049278505375L1084.6569576455186 440.85049278505375L1060.5337765405716 439.7277383453288L1036.8596972115142 440.85049278505375Q1035.9294149614566 439.9522892332738 1035.9294149614566 437.033127689989L1035.9294149614566 437.033127689989Q1035.9294149614566 434.3064383363713 1036.8596972115142 434.3064383363713L1036.8596972115142 434.3064383363713Q1038.6561043150741 434.3064383363713 1041.5752658583592 433.63278567253633Q1044.5265060999218 432.9591330087014 1046.9965658673168 431.83637856897644Q1049.4666256347114 430.7136241292515 1049.6911765226564 429.81542057747157L1049.6911765226564 429.81542057747157Q1050.5893800744366 426.6396294479639 1050.9422457554929 422.5977134649541Q1051.2951114365492 418.52371878366654 1051.2951114365492 414.000622326489L1051.2951114365492 414.000622326489L1051.2951114365492 391.4492974371568Q1051.2951114365492 370.4698287634395 1045.8738114275916 362.80301987503213Q1040.452511418634 355.13621098662475 1028.262606073049 355.13621098662475L1028.262606073049 355.13621098662475Q1023.5470374262046 355.13621098662475 1018.7993900810819 357.734585547131Q1014.0517427359595 360.3329601076373 1010.9080303047296 363.7012234268121Q1007.7322391752219 367.10156544426474 1007.7322391752219 370.02072698754955L1007.7322391752219 370.02072698754955L1007.7322391752219 409.7341554555342Q1007.7322391752219 416.2782099042167 1008.2134196493897 421.21832943900637Q1008.6625214252798 426.1905276720739 1009.5607249770597 429.81542057747157L1009.5607249770597 429.81542057747157Q1010.0098267529496 430.7136241292515 1012.7044374082894 431.83637856897644Q1015.4311267619072 432.9591330087014 1018.5748391931369 433.63278567253633Q1021.7185516243668 434.3064383363713 1023.0979356503145 434.3064383363713L1023.0979356503145 434.3064383363713Q1023.7715883141497 434.3064383363713 1023.9961392020945 437.033127689989Q1024.2206900900396 439.7277383453288 1023.7715883141497 440.85049278505375L1023.7715883141497 440.85049278505375L999.6163285109245 439.7277383453288ZM1122.7664511996104 439.7277383453288L1098.1941683187733 440.85049278505375Q1097.2959647669936 439.9522892332738 1097.2959647669936 437.033127689989L1097.2959647669936 437.033127689989Q1097.2959647669936 434.3064383363713 1098.1941683187733 434.3064383363713L1098.1941683187733 434.3064383363713Q1099.9905754223332 434.3064383363713 1103.1663665518408 433.63278567253633Q1106.310078983071 432.9591330087014 1109.0367683366885 431.83637856897644Q1111.731378992028 430.7136241292515 1111.9559298799732 429.81542057747157L1111.9559298799732 429.81542057747157Q1112.8541334317533 426.6396294479639 1113.2069991128096 422.5977134649541Q1113.527786095588 418.52371878366654 1113.527786095588 414.000622326489L1113.527786095588 414.000622326489L1113.527786095588 371.36803231521947Q1113.527786095588 362.80301987503213 1110.3840736643583 359.21020566791236L1110.3840736643583 359.21020566791236Q1108.1064860866309 356.2589654263497 1104.9627736554007 355.48907666768116Q1101.819061224171 354.6871092107348 1099.5414736464431 354.5908731159012Q1097.2959647669936 354.4625583227898 1097.2959647669936 354.0134565468998L1097.2959647669936 354.0134565468998Q1097.2959647669936 348.5921565379423 1098.6432700946634 348.3676056499973L1098.6432700946634 348.3676056499973Q1110.6086245523034 346.5711985464374 1116.928128113041 345.32012931360106Q1123.2155529755005 344.10113877904257 1128.187751208568 342.97838433931764L1128.187751208568 342.97838433931764L1130.9144405621855 342.2726529772048Q1131.8126441139657 342.0481020892598 1132.0371950019107 344.10113877904257Q1132.2617458898558 346.12209677054744 1132.0371950019107 347.0203003223274L1132.0371950019107 347.0203003223274Q1131.5880932260206 351.543396779505 1131.2352275449643 355.5853127625147Q1130.9144405621855 359.65930744380233 1130.9144405621855 363.2521216509221L1130.9144405621855 363.2521216509221L1130.9144405621855 409.7341554555342Q1130.9144405621855 416.2782099042167 1131.3635423380756 421.21832943900637Q1131.8126441139657 426.1905276720739 1132.7108476657454 429.81542057747157L1132.7108476657454 429.81542057747157Q1133.1599494416355 430.7136241292515 1135.8545600969755 431.83637856897644Q1138.581249450593 432.9591330087014 1141.7249618818228 433.63278567253633Q1144.868674313053 434.3064383363713 1146.2480583390006 434.3064383363713L1146.2480583390006 434.3064383363713Q1146.9217110028353 434.3064383363713 1147.1462618907804 437.033127689989Q1147.3708127787254 439.7277383453288 1146.9217110028353 440.85049278505375L1146.9217110028353 440.85049278505375L1122.7664511996104 439.7277383453288ZM1120.5209423201609 317.70037009636775L1120.5209423201609 317.70037009636775Q1115.997845862983 317.70037009636775 1112.6295825438083 314.332106777193Q1109.2613192246336 310.9317647597403 1109.2613192246336 306.4086683025628L1109.2613192246336 306.4086683025628Q1109.2613192246336 301.693099655718 1112.6295825438083 298.42107243137684Q1115.997845862983 295.1490452070356 1120.5209423201609 295.1490452070356L1120.5209423201609 295.1490452070356Q1125.2685896652833 295.1490452070356 1128.5406168896243 298.42107243137684Q1131.8126441139657 301.693099655718 1131.8126441139657 306.4086683025628L1131.8126441139657 306.4086683025628Q1131.8126441139657 310.9317647597403 1128.5406168896243 314.332106777193Q1125.2685896652833 317.70037009636775 1120.5209423201609 317.70037009636775ZM1207.5825294462593 441.5241454488887L1207.5825294462593 441.5241454488887Q1195.1680732127297 441.5241454488887 1184.8066536689826 434.98009100020624Q1174.4452341252354 428.43603655152384 1168.2219666593314 417.49720043877517Q1162.0307778917054 406.55836432602655 1162.0307778917054 393.0211536527717L1162.0307778917054 393.0211536527717Q1162.0307778917054 377.23843410006697 1167.9011796765526 365.7542601165948Q1173.7395027631223 354.2380074348448 1183.9084501172024 348.04681866721876Q1194.0453187730045 341.82355120131484 1206.6843258944796 341.82355120131484L1206.6843258944796 341.82355120131484Q1217.0457454382267 341.82355120131484 1224.9691839128573 345.76923108949103Q1232.8605436892094 349.7149109776672 1237.1270105601643 355.8098636504597L1237.1270105601643 355.8098636504597Q1241.2010052414516 362.1293672111972 1243.1257271381232 368.5771855650461Q1245.0183703365165 374.9929252206171 1245.0183703365165 381.3124287813546L1245.0183703365165 381.3124287813546Q1245.0183703365165 385.8034465402543 1243.6710650088467 386.82996488514567Q1242.3237596811769 387.856483230037 1238.474315887834 387.856483230037L1238.474315887834 387.856483230037L1181.6629412377524 387.856483230037Q1179.8344554359146 387.856483230037 1179.8344554359146 388.97923766976197L1179.8344554359146 388.97923766976197Q1179.8344554359146 398.4424536617292 1183.6838992292573 407.13578089502795Q1187.5012643243222 415.8291081283267 1194.9435223247847 421.44288032695135Q1202.3857803252472 427.08873122385387 1213.228380343162 427.08873122385387L1213.228380343162 427.08873122385387Q1222.6915963351294 427.08873122385387 1229.1394146889784 424.2658057754026Q1235.555154344549 421.44288032695135 1238.474315887834 419.1973714475015L1238.474315887834 419.1973714475015L1240.0782508017269 418.07461700777657Q1241.4255561293967 418.07461700777657 1241.4255561293967 420.9937785510614L1241.4255561293967 420.9937785510614Q1241.4255561293967 422.5977134649541 1240.0782508017269 425.067773232349L1240.0782508017269 425.067773232349Q1235.555154344549 431.38727679308647 1226.7655910164171 436.4557111209876Q1217.9760276882844 441.5241454488887 1207.5825294462593 441.5241454488887ZM1181.6629412377524 378.3611885397919L1181.6629412377524 378.3611885397919L1225.642836576692 378.3611885397919Q1226.7655910164171 378.3611885397919 1226.7655910164171 376.11567966034204L1226.7655910164171 376.11567966034204Q1226.7655910164171 371.1434814272745 1224.1672164559109 365.1768435475934Q1221.5688418954046 359.21020566791236 1216.372092774392 354.6871092107348Q1211.207422351657 350.19609145183506 1203.3160625753048 350.19609145183506L1203.3160625753048 350.19609145183506Q1196.0983554627874 350.19609145183506 1190.9016063417748 355.0399748917912Q1185.7048572207623 359.8838583317473 1183.0102465654227 366.07504709937336Q1180.2835572118047 372.2983145652773 1180.2835572118047 376.789332324177L1180.2835572118047 376.789332324177Q1180.2835572118047 378.3611885397919 1181.6629412377524 378.3611885397919Z " fill="black" transform="matrix(0.7028008543194657,0,0,0.7028008543194656,0,42.24871740583603)"/></g></svg>